<svg width="440" height="434" viewBox="0 0 440 434" fill="none" xmlns="http://www.w3.org/2000/svg"><path d="M221.67 404.901c111.81 0 202.45-90.64 202.45-202.451C424.12 90.64 333.48 0 221.67 0 109.86 0 19.22 90.64 19.22 202.45c0 111.811 90.64 202.451 202.45 202.451z" fill="url(#paint0_linear)"/><path d="M220.321 359.012c85.721 0 155.212-69.491 155.212-155.212 0-85.721-69.491-155.212-155.212-155.212-85.721 0-155.212 69.491-155.212 155.212 0 85.721 69.491 155.212 155.212 155.212z" fill="url(#paint1_linear)"/><path d="M87.378 292.959H57.82V390h29.558v-97.041z" fill="#fff"/><path d="M107.57 292.959H87.379V390h20.191v-97.041z" fill="url(#paint2_linear)"/><path d="M312.476 260.54H251.93v160.179h60.546V260.54z" fill="#fff"/><path d="M353.829 260.54h-41.353v160.179h41.353V260.54z" fill="url(#paint3_linear)"/><path d="M348.676 88.565L269.72 115.02a7.348 7.348 0 01-9.313-4.643l-2.915-8.719 73.287-24.564a18.47 18.47 0 0117.438 3.104l1.701 1.35c2.51 2.025 1.808 5.993-1.242 7.018z" fill="#082A3F"/><path d="M288.264 63.974a3.993 3.993 0 00-2.375 5.426l8.908 19.786 20.947-7.018-23.835-17.6a4.006 4.006 0 00-3.645-.594zm21.782 64.946c-2.24.756-4.642-.593-5.155-2.888l-4.805-21.163 20.947-7.018-8.395 28.424a4.203 4.203 0 01-2.592 2.645zm-52.448-37.224a3.305 3.305 0 012.672.27l9.556 5.588-12.309 4.13-1.971-5.885a3.243 3.243 0 012.052-4.103z" fill="#082A3F"/><path d="M0 189.547l61.49-21.756 61.6-21.514c20.515-7.18 40.949-14.657 61.68-21.244 20.758-6.451 41.515-12.984 62.624-18.436l.162.513c-20.11 8.367-40.625 15.656-61.059 23.025-20.515 7.234-41.3 13.578-62.004 20.218l-62.111 19.975L.189 190.033 0 189.547zm0 13.497l61.49-21.757 61.6-21.513c20.515-7.181 40.949-14.658 61.68-21.244 20.758-6.452 41.515-12.984 62.624-18.437l.162.513c-20.11 8.368-40.625 15.656-61.059 23.025-20.515 7.235-41.3 13.578-62.004 20.219l-62.111 19.975L.189 203.53 0 203.044z" fill="#fff"/><path d="M332.344 80.98s9.447-4.049 12.147 1.35l-10.798 2.7-1.349-4.05z" fill="#4094D3"/><path d="M348.672 88.565l-78.956 26.454a7.347 7.347 0 01-9.312-4.643l-2.916-8.719 73.287-24.564a18.47 18.47 0 0117.438 3.104l1.701 1.35c2.51 2.025 1.808 5.993-1.242 7.018z" fill="#082A3F"/><path d="M347.214 78.875l-1.7-1.35a18.47 18.47 0 00-17.438-3.104l-73.287 24.564 2.915 8.719c1.296 3.86 5.453 5.911 9.313 4.642l78.956-26.453c3.05-1.053 3.752-5.02 1.241-7.018z" fill="url(#paint4_linear)"/><path d="M191.142 197.43h-88.97v223.748h88.97V197.43z" fill="#fff"/><path d="M251.93 197.43h-60.762v223.748h60.762V197.43z" fill="url(#paint5_linear)"/><path d="M390.757 276.277h-41.624V407.6h41.624V276.277z" fill="#fff"/><path d="M419.182 276.277h-28.424V407.6h28.424V276.277z" fill="url(#paint6_linear)"/><path d="M65.163 291.987h-54.23V423.31h54.23V291.987z" fill="#fff"/><path d="M102.199 291.987H65.164V423.31H102.2V291.987z" fill="url(#paint7_linear)"/><g opacity=".75"><path opacity=".75" d="M132.725 222.047h-12.768v177.455h12.768V222.047z" fill="url(#paint8_linear)"/><path opacity=".75" d="M166.467 222.047h-12.768v177.455h12.768V222.047z" fill="url(#paint9_linear)"/></g><g opacity=".5"><path opacity=".5" d="M302.137 279.517h-13.793v13.793h13.793v-13.793z" fill="url(#paint10_linear)"/><path opacity=".5" d="M302.137 316.794h-13.793v13.794h13.793v-13.794z" fill="url(#paint11_linear)"/></g><g opacity=".5"><path opacity=".5" d="M276.064 279.517h-13.793v13.793h13.793v-13.793z" fill="url(#paint12_linear)"/><path opacity=".5" d="M276.063 316.794H262.27v13.794h13.793v-13.794z" fill="url(#paint13_linear)"/></g><g opacity=".75"><path opacity=".25" d="M44.943 315.931H31.149v13.793h13.794v-13.793z" fill="url(#paint14_linear)"/><path opacity=".25" d="M44.942 355.908H31.148v13.793h13.794v-13.793z" fill="url(#paint15_linear)"/><path opacity=".25" d="M44.942 392.16H31.148v13.794h13.794V392.16z" fill="url(#paint16_linear)"/></g><path d="M377.475 292.716h-12.768v21.973h12.768v-21.973z" fill="url(#paint17_linear)"/><path d="M377.475 331.641h-12.768v21.972h12.768v-21.972z" fill="url(#paint18_linear)"/><path d="M377.475 370.565h-12.768v21.973h12.768v-21.973z" fill="url(#paint19_linear)"/><path d="M272.767 324.325h-67.294v106.489h67.294V324.325z" fill="#fff"/><path d="M318.708 324.325h-45.942v106.489h45.942V324.325z" fill="url(#paint20_linear)"/><g opacity=".5"><path opacity=".5" d="M246.017 349.996h-13.793v13.794h13.793v-13.794z" fill="url(#paint21_linear)"/><path opacity=".5" d="M246.016 389.973h-13.793v13.794h13.793v-13.794z" fill="url(#paint22_linear)"/></g><path d="M440 342H6v92h434v-92z" fill="url(#paint23_linear)"/><defs><linearGradient id="paint0_linear" x1="221.67" y1="0" x2="221.67" y2="404.901" gradientUnits="userSpaceOnUse"><stop stop-color="#CFEBFF"/><stop offset="1" stop-color="#81BBFF"/></linearGradient><linearGradient id="paint1_linear" x1="220.321" y1="48.588" x2="220.321" y2="359.012" gradientUnits="userSpaceOnUse"><stop stop-color="#81BBFF"/><stop offset="1" stop-color="#CFEBFF"/></linearGradient><linearGradient id="paint2_linear" x1="97.486" y1="389.986" x2="97.486" y2="292.955" gradientUnits="userSpaceOnUse"><stop stop-color="#fff"/><stop offset=".88" stop-color="#80B1D3"/></linearGradient><linearGradient id="paint3_linear" x1="333.153" y1="260.54" x2="333.153" y2="420.719" gradientUnits="userSpaceOnUse"><stop stop-color="#5D9AE0"/><stop offset=".626" stop-color="#C3D9F3"/><stop offset="1" stop-color="#fff"/></linearGradient><linearGradient id="paint4_linear" x1="301.78" y1="112.705" x2="301.78" y2="73.459" gradientUnits="userSpaceOnUse"><stop stop-color="#EBEFF7"/><stop offset="1" stop-color="#fff"/></linearGradient><linearGradient id="paint5_linear" x1="221.549" y1="197.43" x2="221.549" y2="421.178" gradientUnits="userSpaceOnUse"><stop stop-color="#5D9AE0"/><stop offset=".626" stop-color="#C3D9F3"/><stop offset="1" stop-color="#fff"/></linearGradient><linearGradient id="paint6_linear" x1="404.97" y1="276.277" x2="404.97" y2="407.6" gradientUnits="userSpaceOnUse"><stop stop-color="#5D9AE0"/><stop offset=".626" stop-color="#C3D9F3"/><stop offset="1" stop-color="#fff"/></linearGradient><linearGradient id="paint7_linear" x1="83.681" y1="291.987" x2="83.681" y2="423.31" gradientUnits="userSpaceOnUse"><stop stop-color="#5D9AE0"/><stop offset=".626" stop-color="#C3D9F3"/><stop offset="1" stop-color="#fff"/></linearGradient><linearGradient id="paint8_linear" x1="126.335" y1="399.602" x2="126.335" y2="222.101" gradientUnits="userSpaceOnUse"><stop stop-color="#fff"/><stop offset=".996" stop-color="#799EC6"/></linearGradient><linearGradient id="paint9_linear" x1="160.093" y1="399.602" x2="160.093" y2="222.101" gradientUnits="userSpaceOnUse"><stop stop-color="#fff"/><stop offset=".996" stop-color="#799EC6"/></linearGradient><linearGradient id="paint10_linear" x1="295.249" y1="293.311" x2="295.249" y2="279.52" gradientUnits="userSpaceOnUse"><stop stop-color="#fff"/><stop offset=".996" stop-color="#799EC6"/></linearGradient><linearGradient id="paint11_linear" x1="295.249" y1="330.591" x2="295.249" y2="316.8" gradientUnits="userSpaceOnUse"><stop stop-color="#fff"/><stop offset=".996" stop-color="#799EC6"/></linearGradient><linearGradient id="paint12_linear" x1="269.172" y1="293.311" x2="269.172" y2="279.52" gradientUnits="userSpaceOnUse"><stop stop-color="#fff"/><stop offset=".996" stop-color="#799EC6"/></linearGradient><linearGradient id="paint13_linear" x1="269.171" y1="330.591" x2="269.171" y2="316.8" gradientUnits="userSpaceOnUse"><stop stop-color="#fff"/><stop offset=".996" stop-color="#799EC6"/></linearGradient><linearGradient id="paint14_linear" x1="38.046" y1="329.722" x2="38.046" y2="315.931" gradientUnits="userSpaceOnUse"><stop stop-color="#fff"/><stop offset=".996" stop-color="#799EC6"/></linearGradient><linearGradient id="paint15_linear" x1="38.045" y1="369.701" x2="38.045" y2="355.91" gradientUnits="userSpaceOnUse"><stop stop-color="#fff"/><stop offset=".996" stop-color="#799EC6"/></linearGradient><linearGradient id="paint16_linear" x1="38.045" y1="405.939" x2="38.045" y2="392.148" gradientUnits="userSpaceOnUse"><stop stop-color="#fff"/><stop offset=".996" stop-color="#799EC6"/></linearGradient><linearGradient id="paint17_linear" x1="371.097" y1="314.69" x2="371.097" y2="292.723" gradientUnits="userSpaceOnUse"><stop stop-color="#fff"/><stop offset=".996" stop-color="#799EC6"/></linearGradient><linearGradient id="paint18_linear" x1="371.097" y1="353.613" x2="371.097" y2="331.646" gradientUnits="userSpaceOnUse"><stop stop-color="#fff"/><stop offset=".996" stop-color="#799EC6"/></linearGradient><linearGradient id="paint19_linear" x1="371.097" y1="392.537" x2="371.097" y2="370.57" gradientUnits="userSpaceOnUse"><stop stop-color="#fff"/><stop offset=".996" stop-color="#799EC6"/></linearGradient><linearGradient id="paint20_linear" x1="295.737" y1="324.325" x2="295.737" y2="430.814" gradientUnits="userSpaceOnUse"><stop stop-color="#5D9AE0"/><stop offset=".626" stop-color="#C3D9F3"/><stop offset="1" stop-color="#fff"/></linearGradient><linearGradient id="paint21_linear" x1="239.117" y1="363.798" x2="239.117" y2="350.007" gradientUnits="userSpaceOnUse"><stop stop-color="#fff"/><stop offset=".996" stop-color="#799EC6"/></linearGradient><linearGradient id="paint22_linear" x1="239.116" y1="403.776" x2="239.116" y2="389.986" gradientUnits="userSpaceOnUse"><stop stop-color="#fff"/><stop offset=".996" stop-color="#799EC6"/></linearGradient><linearGradient id="paint23_linear" x1="223" y1="434" x2="223" y2="342" gradientUnits="userSpaceOnUse"><stop stop-color="#F2F9FF"/><stop offset="1" stop-color="#F2F9FF" stop-opacity="0"/></linearGradient></defs></svg>